<svg xmlns="http://www.w3.org/2000/svg" viewBox="0 0 316.47 35.78"><defs><style>.cls-1{fill:#fff;}</style></defs><title>Asset 2</title><g id="Layer_2" data-name="Layer 2"><g id="Logo"><path class="cls-1" d="M213.42,20.25q-.9,1.76-1.71,3.43t-1.51,3.09a12.92,12.92,0,0,0-.57,1.35,4,4,0,0,0-.28,1.35.82.82,0,0,0,.16.54.64.64,0,0,0,.52.2,3.72,3.72,0,0,0,1.29-.31A14,14,0,0,0,213,29.1q.9-.5,1.9-1.15t2-1.34q1-.7,1.84-1.39t1.56-1.28a1.31,1.31,0,0,1,.73-.27.82.82,0,0,1,.68.37A1.53,1.53,0,0,1,222,25a2.74,2.74,0,0,1-.27,1.15,3.25,3.25,0,0,1-1,1.15q-1.59,1.44-3.21,2.73a33.28,33.28,0,0,1-3.22,2.28,18.16,18.16,0,0,1-3.16,1.57,8.59,8.59,0,0,1-3,.59,4.54,4.54,0,0,1-1.63-.26,2.7,2.7,0,0,1-1.06-.71,2.65,2.65,0,0,1-.57-1,4.66,4.66,0,0,1-.17-1.28,8.45,8.45,0,0,1,.42-2.54,17.08,17.08,0,0,1,.93-2.37l1.45-3q.72-1.49,1.4-2.85h-1a3,3,0,0,1-1.88-.44,1.3,1.3,0,0,1-.51-1,1.52,1.52,0,0,1,.16-.6,2.22,2.22,0,0,1,.46-.66,2.85,2.85,0,0,1,.74-.52,2.22,2.22,0,0,1,1-.22h2.64l5.15-10.22a3.13,3.13,0,0,1,1.21-1.33,3,3,0,0,1,1.5-.4,2.44,2.44,0,0,1,1.34.39,1.42,1.42,0,0,1,.61,1.29,2.33,2.33,0,0,1-.21.94q-.21.48-.55,1.11l-.54,1-.67,1.22-.73,1.35-.74,1.37L215,16.93h8a8.74,8.74,0,0,1,1.07.06,2.5,2.5,0,0,1,.84.24,1.37,1.37,0,0,1,.55.5,1.62,1.62,0,0,1,.2.85,1.77,1.77,0,0,1-.08.54,1.16,1.16,0,0,1-.32.49,1.82,1.82,0,0,1-.63.37,4,4,0,0,1-1,.19Z"/><path class="cls-1" d="M222.1,17.47a3.14,3.14,0,0,1,1-.4,4.9,4.9,0,0,1,1.16-.13,7.44,7.44,0,0,1,1.27.11,4.88,4.88,0,0,1,1.13.33,2.66,2.66,0,0,1,.82.54,1,1,0,0,1,.32.73.55.55,0,0,1,0,.2l-.11.27-.11.27a.55.55,0,0,0,0,.2s0,0,0,0h0l0,0a21.8,21.8,0,0,1,2-1.07q1-.49,2-.84a15.84,15.84,0,0,1,1.82-.56,6.76,6.76,0,0,1,1.55-.21,2.49,2.49,0,0,1,1.7.52,2.25,2.25,0,0,1,.6,1.77c0,.18,0,.37,0,.57a5,5,0,0,1-.1.65,4,4,0,0,1-.73,1.49,22.34,22.34,0,0,1-1.43,1.78q-.82.93-1.76,1.87l-1.73,1.73q-.79.79-1.32,1.38c-.35.39-.52.66-.52.81a1,1,0,0,0,0,.27s.09.07.22.07q1.32-.56,2.94-1.35t3.23-1.62q1.61-.83,3.05-1.62t2.44-1.38a3.18,3.18,0,0,1,.45-.21,1.25,1.25,0,0,1,.43-.09,1,1,0,0,1,.73.29,1.06,1.06,0,0,1,.29.78,2.41,2.41,0,0,1-.48,1.28,6,6,0,0,1-1.6,1.5l-1.92,1.21L237.12,30q-1.16.72-2.34,1.4t-2.28,1.22a17.89,17.89,0,0,1-2.06.87,5.3,5.3,0,0,1-1.67.33,3.53,3.53,0,0,1-2.53-.81,2.74,2.74,0,0,1-.84-2.07,1.29,1.29,0,0,1,0-.29,7.84,7.84,0,0,1,.63-2.07,15.41,15.41,0,0,1,1-1.9q.59-.9,1.22-1.72t1.16-1.54a13.38,13.38,0,0,0,.87-1.33,2.33,2.33,0,0,0,.34-1.12.66.66,0,0,0,0-.24.21.21,0,0,0-.22-.12,3.6,3.6,0,0,0-1,.22,11.52,11.52,0,0,0-1.43.59,10.62,10.62,0,0,0-1.44.84,3.08,3.08,0,0,0-1,1q-.39.68-.9,1.73l-1.06,2.2q-.55,1.15-1.06,2.27l-.88,1.93a4.73,4.73,0,0,1-.77,1.27,5.4,5.4,0,0,1-1,1,5.21,5.21,0,0,1-1.15.61,3.09,3.09,0,0,1-1.07.22,1.29,1.29,0,0,1-.89-.29,1.22,1.22,0,0,1-.33-1,3.36,3.36,0,0,1,.08-.67,3.32,3.32,0,0,1,.35-.89q.44-.83.89-1.81l1-2.23,1.35-2.88Q221,23.08,222,21a2.51,2.51,0,0,1-.57-.72,2.2,2.2,0,0,1-.23-1.06"/><path class="cls-1" d="M266.15,26.79q-.44.42-1.17,1.15t-1.67,1.59q-.94.85-2,1.72a23,23,0,0,1-2.17,1.57A14.63,14.63,0,0,1,256.95,34a5.24,5.24,0,0,1-2,.45,2.79,2.79,0,0,1-1.46-.37,3.23,3.23,0,0,1-1-1,4.2,4.2,0,0,1-.6-1.33,6,6,0,0,1-.2-1.52,7,7,0,0,1,.07-1,4.29,4.29,0,0,1,.24-.94q-.76,1-1.72,2.11a16.91,16.91,0,0,1-2.07,2,11.72,11.72,0,0,1-2.32,1.46,5.67,5.67,0,0,1-2.45.57,5.18,5.18,0,0,1-1.48-.26,5,5,0,0,1-1.6-.84,4.84,4.84,0,0,1-1.27-1.51,4.63,4.63,0,0,1-.51-2.27,11.37,11.37,0,0,1,.31-2.39,17.13,17.13,0,0,1,.93-2.89,17.8,17.8,0,0,1,1.59-3,13,13,0,0,1,2.28-2.62,11.14,11.14,0,0,1,3-1.88,9.47,9.47,0,0,1,3.76-.72,6,6,0,0,1,1.88.27,7.87,7.87,0,0,1,1.37.59,6.78,6.78,0,0,1,1.12.85q.41-.22.85-.42a7.3,7.3,0,0,1,.77-.31,2.27,2.27,0,0,1,.7-.13,2.21,2.21,0,0,1,1.51.51,1.48,1.48,0,0,1,.59,1.12,1.14,1.14,0,0,1,0,.27q-.12.46-.38,1.17l-.57,1.57q-.32.87-.65,1.81t-.6,1.84q-.27.9-.44,1.7a6.64,6.64,0,0,0-.17,1.35,2.64,2.64,0,0,0,.24,1.21.86.86,0,0,0,.83.48,2.12,2.12,0,0,0,.87-.23,8.23,8.23,0,0,0,1.09-.62q.59-.39,1.21-.89t1.21-1q1.37-1.22,2.9-2.78a1.22,1.22,0,0,1,.76-.32,1,1,0,0,1,.82.48,1.82,1.82,0,0,1,.33,1.06A1.56,1.56,0,0,1,266.15,26.79Zm-16.91-6.3a4.58,4.58,0,0,0-2.22.59,6.88,6.88,0,0,0-1.9,1.54,7.68,7.68,0,0,0-1.32,2.14,6.18,6.18,0,0,0-.49,2.38,8.91,8.91,0,0,0,.06,1,2.89,2.89,0,0,0,.28,1,2,2,0,0,0,.62.73,1.81,1.81,0,0,0,1.09.29,2.39,2.39,0,0,0,1.26-.48,10.5,10.5,0,0,0,1.49-1.22,19.47,19.47,0,0,0,1.5-1.63q.73-.89,1.32-1.74a16.79,16.79,0,0,0,1-1.54,2.5,2.5,0,0,0,.37-1,1.28,1.28,0,0,0-.32-.84,2.93,2.93,0,0,0-.78-.65,3.88,3.88,0,0,0-1-.4A3.77,3.77,0,0,0,249.24,20.49Z"/><path class="cls-1" d="M284.72,28.35a17.69,17.69,0,0,1-3.66,2.18,10.08,10.08,0,0,1-4.05.79,3.83,3.83,0,0,1-1.42-.27,11.72,11.72,0,0,1-1.78-1,14.21,14.21,0,0,1-3.23,3.22,6,6,0,0,1-3.38,1.1,4.46,4.46,0,0,1-1.63-.3,3.78,3.78,0,0,1-1.37-.92,4.57,4.57,0,0,1-.94-1.51,5.74,5.74,0,0,1-.35-2.1,16.71,16.71,0,0,1,.33-3.16q.33-1.7.79-3.31t.92-3l.72-2.17a3.33,3.33,0,0,1,1.23-1.48,2.79,2.79,0,0,1,1.45-.45,2,2,0,0,1,.65.11,2.21,2.21,0,0,1,.6.31,1.71,1.71,0,0,1,.44.46,1.07,1.07,0,0,1,.17.59,1,1,0,0,1-.1.46q-.37,1.17-.87,2.55t-.94,2.77q-.44,1.39-.74,2.72a11,11,0,0,0-.3,2.43,2.69,2.69,0,0,0,0,.45,5.11,5.11,0,0,0,.12.54,1.54,1.54,0,0,0,.2.44.34.34,0,0,0,.27.18,2.23,2.23,0,0,0,1.42-.71,13.73,13.73,0,0,0,1.71-2,12.66,12.66,0,0,0,1.53-2q.72-1.16,1.37-2.38t1.25-2.4q.6-1.18,1.17-2.12A8.49,8.49,0,0,1,277.45,17a1.62,1.62,0,0,1,1.15-.57A1.55,1.55,0,0,1,280,17a2.81,2.81,0,0,1,.41,1.55,5.18,5.18,0,0,1-.33,1.88,10.92,10.92,0,0,1-.89,1.77q-.56.92-1.33,2t-1.67,2.65a1.43,1.43,0,0,0,1.22.51,8,8,0,0,0,1.82-.22,10.93,10.93,0,0,0,1.87-.62,13.93,13.93,0,0,0,1.84-1,18.85,18.85,0,0,0,1.77-1.26,1.34,1.34,0,0,1,.68-.22.85.85,0,0,1,.72.39,1.68,1.68,0,0,1,.28,1,3.19,3.19,0,0,1-.39,1.43A3.94,3.94,0,0,1,284.72,28.35Z"/><path class="cls-1" d="M294.09,16.05a4.18,4.18,0,0,1,3,1,3.61,3.61,0,0,1,1,2.71,5,5,0,0,1-.54,2.15,7.44,7.44,0,0,1-1.85,2.28,19.7,19.7,0,0,1-3.53,2.37A41.69,41.69,0,0,1,286.67,29a1.59,1.59,0,0,0,.76,1.11,3.11,3.11,0,0,0,1.68.4,9.69,9.69,0,0,0,2.4-.33,19.71,19.71,0,0,0,2.54-.84q1.26-.51,2.45-1.11t2.16-1.13q1-.54,1.61-.93t.87-.49a1,1,0,0,1,.4-.17l.33,0a.84.84,0,0,1,.49.13,1.38,1.38,0,0,1,.33.32,1.09,1.09,0,0,1,.18.39,1.61,1.61,0,0,1,0,.35,3.44,3.44,0,0,1,0,.52,1.56,1.56,0,0,1-.37.7q-.12.12-.82.66t-1.79,1.27q-1.1.73-2.55,1.55a29.83,29.83,0,0,1-3.07,1.5A24.24,24.24,0,0,1,290.89,34a13.9,13.9,0,0,1-3.46.45,5.79,5.79,0,0,1-2.6-.56,5.87,5.87,0,0,1-1.93-1.51,6.72,6.72,0,0,1-1.21-2.2,8.21,8.21,0,0,1-.41-2.61,7.42,7.42,0,0,1,.41-2.31,12.08,12.08,0,0,1,1.2-2.53,15.54,15.54,0,0,1,1.92-2.48,14.05,14.05,0,0,1,2.55-2.14,13.26,13.26,0,0,1,3.11-1.49A11.46,11.46,0,0,1,294.09,16.05Zm-.88,3.37-.22,0h-.22a4.14,4.14,0,0,0-1.73.37,5.85,5.85,0,0,0-1.48,1,7.63,7.63,0,0,0-1.2,1.35q-.53.76-.94,1.5a13.39,13.39,0,0,0-.7,1.43q-.28.68-.43,1.15.85-.44,1.77-1l1.72-1.07q.81-.51,1.4-.93t.84-.56a5.16,5.16,0,0,0,1.51-1.28,1.92,1.92,0,0,0,.41-1,.77.77,0,0,0-.23-.59A1,1,0,0,0,293.21,19.42Z"/><path class="cls-1" d="M304.41,26.77a12.3,12.3,0,0,0-.53,1.31,4.17,4.17,0,0,0-.26,1.33,1,1,0,0,0,.15.59.63.63,0,0,0,.56.22,3.63,3.63,0,0,0,1.28-.31,13.89,13.89,0,0,0,1.66-.81q.89-.5,1.85-1.15T311,26.61q1-.7,1.82-1.39t1.55-1.28a1.15,1.15,0,0,1,.46-.24,1.8,1.8,0,0,1,.46-.07,1.05,1.05,0,0,1,.81.34,1.28,1.28,0,0,1,.32.9,2.47,2.47,0,0,1-.34,1.15,3.88,3.88,0,0,1-1.2,1.24q-1.56,1.44-3.15,2.73a31.64,31.64,0,0,1-3.16,2.28,17.61,17.61,0,0,1-3.12,1.57,8.5,8.5,0,0,1-3,.59,4.53,4.53,0,0,1-1.67-.27,2.62,2.62,0,0,1-1.65-1.83A5.16,5.16,0,0,1,299,31a9,9,0,0,1,.35-2.45,15.17,15.17,0,0,1,.84-2.31q.85-1.9,1.73-3.78L303.53,19l7.39-15.74a2.73,2.73,0,0,1,1.18-1.34,3.21,3.21,0,0,1,1.5-.39,2.44,2.44,0,0,1,1.38.41,1.49,1.49,0,0,1,.62,1.34,2.38,2.38,0,0,1-.21.93,10.64,10.64,0,0,1-.52,1q-.61,1.15-1.45,2.81t-1.81,3.61q-1,2-2,4.06l-2,4.11q-1,2-1.81,3.79Z"/><path class="cls-1" d="M31,24.35h-.37q-1.15,2.58-2,4.53t-1.35,2.82a6.21,6.21,0,0,1-.9,1.27,5.68,5.68,0,0,1-1.07.9,4.57,4.57,0,0,1-1.14.54,3.67,3.67,0,0,1-1.07.18,2,2,0,0,1-1.22-.35,1.21,1.21,0,0,1-.49-1.06,3.54,3.54,0,0,1,.38-1.43l3.38-7.16-4.92.16-4.54.12a43,43,0,0,1-2.37,4.23,22.77,22.77,0,0,1-2.67,3.46,12.61,12.61,0,0,1-2.93,2.33,6.38,6.38,0,0,1-3.17.86,4.43,4.43,0,0,1-2.35-.66,2.41,2.41,0,0,1-.72-.53,4.94,4.94,0,0,1-.72-.93A6.2,6.2,0,0,1,.22,32.5,3.86,3.86,0,0,1,0,31.2a2.54,2.54,0,0,1,.16-.9,3.29,3.29,0,0,1,.47-.83Q.77,29.3,1,29a3.72,3.72,0,0,1,.45-.5A2.7,2.7,0,0,1,2,28.13,1.3,1.3,0,0,1,2.6,28a1.16,1.16,0,0,1,.28,0,.68.68,0,0,1,.26.13,1.41,1.41,0,0,1,.46.63q.22.49.49,1a5.91,5.91,0,0,0,.6,1,1,1,0,0,0,.77.42,2.14,2.14,0,0,0,1.28-.48,7.1,7.1,0,0,0,1.31-1.34,17,17,0,0,0,1.35-2.05q.68-1.2,1.36-2.6A1.94,1.94,0,0,1,9.71,24a1.55,1.55,0,0,1-.31-.9.93.93,0,0,1,.21-.56,2,2,0,0,1,.59-.5,4.36,4.36,0,0,1,.88-.39,4.12,4.12,0,0,1,1.11-.19q.84-2.06,1.62-4.29t1.48-4.36q.7-2.14,1.29-4.09t1-3.51q.45-1.55.73-2.56l.35-1.27A1.67,1.67,0,0,1,19.42.33,2.12,2.12,0,0,1,20.55,0a1.69,1.69,0,0,1,1.4.6,3.59,3.59,0,0,1,.48,2.17v.39c0,.13,0,.28,0,.43q0,.61-.23,1.65t-.49,2.4q-.3,1.36-.75,3t-1,3.4q-.55,1.77-1.22,3.65t-1.44,3.73h3.55l2.48,0,3.17.08h.09q2.06-4.34,3.92-8.18t3.4-6.71a43.07,43.07,0,0,1,2.75-4.54q1.2-1.67,2-1.67a1.74,1.74,0,0,1,1.23.39,1.37,1.37,0,0,1,.41,1,2.14,2.14,0,0,1-.08.62,5.86,5.86,0,0,1-.22.6q-.61,1.48-1.55,3.64t-2,4.66l-2.29,5.19-2.29,5.2a4.2,4.2,0,0,1,1.16.39.73.73,0,0,1,.46.65,1.29,1.29,0,0,1-.54,1A3.08,3.08,0,0,1,31,24.35Z"/><path class="cls-1" d="M60.58,27.1l-1.13,1.1q-.7.7-1.61,1.52t-1.92,1.65a22.05,22.05,0,0,1-2.09,1.51A14.08,14.08,0,0,1,51.73,34a5,5,0,0,1-1.95.43,2.69,2.69,0,0,1-1.41-.35,3.11,3.11,0,0,1-1-.92,4,4,0,0,1-.57-1.28,5.74,5.74,0,0,1-.19-1.47,6.72,6.72,0,0,1,.07-1,4.11,4.11,0,0,1,.23-.9q-.73,1-1.65,2a16.33,16.33,0,0,1-2,1.9,11.29,11.29,0,0,1-2.23,1.41,5.45,5.45,0,0,1-2.36.55,5,5,0,0,1-1.42-.25,4.77,4.77,0,0,1-1.54-.81,4.65,4.65,0,0,1-1.22-1.45A4.45,4.45,0,0,1,34,29.75a11,11,0,0,1,.29-2.3,16.5,16.5,0,0,1,.89-2.78,17.08,17.08,0,0,1,1.52-2.85,12.49,12.49,0,0,1,2.19-2.52,10.7,10.7,0,0,1,2.89-1.81,9.1,9.1,0,0,1,3.61-.69,5.72,5.72,0,0,1,1.81.26,7.55,7.55,0,0,1,1.31.56,6.58,6.58,0,0,1,1.08.82q.4-.21.82-.4a7,7,0,0,1,.74-.29,2.18,2.18,0,0,1,.67-.13,2.13,2.13,0,0,1,1.45.49,1.43,1.43,0,0,1,.56,1.08,1.14,1.14,0,0,1,0,.26q-.12.45-.36,1.13L53,22.09q-.31.83-.62,1.74t-.57,1.77q-.26.87-.42,1.63a6.35,6.35,0,0,0-.16,1.3,2.54,2.54,0,0,0,.23,1.16.82.82,0,0,0,.8.46,2,2,0,0,0,.83-.22,7.88,7.88,0,0,0,1-.6q.56-.37,1.16-.86t1.16-1q1.31-1.17,2.79-2.67a1.17,1.17,0,0,1,.73-.31.93.93,0,0,1,.79.46A1.75,1.75,0,0,1,61,26,1.5,1.5,0,0,1,60.58,27.1ZM44.32,21a4.4,4.4,0,0,0-2.13.56,6.61,6.61,0,0,0-1.83,1.48,7.37,7.37,0,0,0-1.27,2.05,6,6,0,0,0-.47,2.29,8.44,8.44,0,0,0,.06,1,2.76,2.76,0,0,0,.27.93,1.92,1.92,0,0,0,.6.7,1.74,1.74,0,0,0,1,.28,2.3,2.3,0,0,0,1.21-.46,10.07,10.07,0,0,0,1.43-1.17,18.82,18.82,0,0,0,1.44-1.57q.7-.86,1.27-1.68A16.28,16.28,0,0,0,46.85,24a2.41,2.41,0,0,0,.35-1,1.23,1.23,0,0,0-.3-.81,2.82,2.82,0,0,0-.75-.62,3.75,3.75,0,0,0-1-.39A3.62,3.62,0,0,0,44.32,21Z"/><path class="cls-1" d="M61.89,19.61a3.66,3.66,0,0,1,1.17-1.5,2.41,2.41,0,0,1,1.38-.49,1.45,1.45,0,0,1,1,.41,1.56,1.56,0,0,1,.45,1.21,3.36,3.36,0,0,1-.07.66,3.3,3.3,0,0,1-.26.75,7.27,7.27,0,0,1,1.48-1.35,13.66,13.66,0,0,1,2.12-1.24,15.57,15.57,0,0,1,2.39-.9,8.51,8.51,0,0,1,2.33-.35,3.47,3.47,0,0,1,2.08.6,2.33,2.33,0,0,1,.83,2,6.48,6.48,0,0,1-.26,1.76A13.37,13.37,0,0,1,75.89,23q-.41.91-.92,1.79t-1,1.65l-.9,1.42q-.41.65-.65,1.07a1.34,1.34,0,0,0-.31.87.5.5,0,0,0,.12.33.46.46,0,0,0,.38.14,2.32,2.32,0,0,0,.38,0,1.37,1.37,0,0,0,.52-.25,21.39,21.39,0,0,0,2.59-1.17q1.32-.7,2.55-1.49t2.24-1.57q1-.79,1.7-1.42a1.24,1.24,0,0,1,.38-.23,1,1,0,0,1,.35-.07.73.73,0,0,1,.62.31,1.28,1.28,0,0,1,.22.77,3.61,3.61,0,0,1-.46,1.62,5.12,5.12,0,0,1-1.44,1.67l-2.45,1.76q-1.11.8-2.28,1.49A24.64,24.64,0,0,1,75,33a23.43,23.43,0,0,1-3.11,1.11,10.17,10.17,0,0,1-1.11.28,5.1,5.1,0,0,1-.93.09,2.23,2.23,0,0,1-1.82-.69,2.94,2.94,0,0,1-.58-1.94q0-.16,0-.32t0-.34a5.37,5.37,0,0,1,.39-1.6,17.72,17.72,0,0,1,.82-1.78q.48-.91,1-1.82t1-1.71q.46-.81.76-1.44a2.54,2.54,0,0,0,.31-1,.92.92,0,0,0-.2-.6.72.72,0,0,0-.6-.25,5.09,5.09,0,0,0-2.85.89A13.19,13.19,0,0,0,65.67,24a25.34,25.34,0,0,0-2.16,2.76q-1,1.45-1.74,2.6A14.35,14.35,0,0,0,60.92,31q-.39.88-.81,1.64a5.25,5.25,0,0,1-1,1.27,1.84,1.84,0,0,1-1.33.5,1.66,1.66,0,0,1-1.29-.52,1.81,1.81,0,0,1-.47-1.27,4.33,4.33,0,0,1,.33-1.29q.33-.89.84-2.06t1.16-2.52l1.29-2.67q.64-1.32,1.23-2.5T61.89,19.61Z"/><path class="cls-1" d="M84.21,19.61a3.66,3.66,0,0,1,1.17-1.5,2.42,2.42,0,0,1,1.38-.49,1.45,1.45,0,0,1,1,.41,1.56,1.56,0,0,1,.45,1.21,3.36,3.36,0,0,1-.07.66,3.3,3.3,0,0,1-.26.75,7.27,7.27,0,0,1,1.48-1.35,13.75,13.75,0,0,1,2.12-1.24,15.58,15.58,0,0,1,2.39-.9,8.5,8.5,0,0,1,2.33-.35,3.47,3.47,0,0,1,2.08.6,2.33,2.33,0,0,1,.83,2,6.49,6.49,0,0,1-.26,1.76A13.3,13.3,0,0,1,98.2,23q-.41.91-.91,1.79t-1,1.65l-.9,1.42q-.41.65-.65,1.07a1.34,1.34,0,0,0-.3.87.5.5,0,0,0,.12.33.46.46,0,0,0,.38.14,2.35,2.35,0,0,0,.38,0,1.37,1.37,0,0,0,.52-.25,21.38,21.38,0,0,0,2.59-1.17q1.33-.7,2.55-1.49t2.24-1.57q1-.79,1.7-1.42a1.24,1.24,0,0,1,.38-.23,1,1,0,0,1,.35-.07.73.73,0,0,1,.62.31,1.28,1.28,0,0,1,.22.77,3.61,3.61,0,0,1-.46,1.62,5.12,5.12,0,0,1-1.44,1.67l-2.45,1.76q-1.11.8-2.28,1.49A24.62,24.62,0,0,1,97.36,33a23.55,23.55,0,0,1-3.11,1.11,10.15,10.15,0,0,1-1.12.28,5.09,5.09,0,0,1-.93.09,2.23,2.23,0,0,1-1.82-.69,3,3,0,0,1-.57-1.94c0-.11,0-.21,0-.32s0-.21,0-.34a5.37,5.37,0,0,1,.39-1.6,17.81,17.81,0,0,1,.82-1.78q.48-.91,1-1.82t1-1.71c.3-.54.56-1,.76-1.44a2.54,2.54,0,0,0,.3-1,.92.92,0,0,0-.2-.6.72.72,0,0,0-.6-.25,5.08,5.08,0,0,0-2.85.89A13.14,13.14,0,0,0,88,24a25.42,25.42,0,0,0-2.16,2.76q-1,1.45-1.73,2.6A14.05,14.05,0,0,0,83.23,31q-.39.88-.81,1.64a5.3,5.3,0,0,1-1,1.27,1.84,1.84,0,0,1-1.33.5,1.65,1.65,0,0,1-1.29-.52,1.81,1.81,0,0,1-.47-1.27,4.33,4.33,0,0,1,.33-1.29q.33-.89.84-2.06t1.16-2.52L82,24.11l1.23-2.5Q83.83,20.44,84.21,19.61Z"/><path class="cls-1" d="M128.29,27.1q-.42.4-1.13,1.1t-1.61,1.52q-.9.82-1.92,1.65a22.18,22.18,0,0,1-2.09,1.51,14.08,14.08,0,0,1-2.1,1.11,5,5,0,0,1-1.95.43,2.69,2.69,0,0,1-1.41-.35,3.11,3.11,0,0,1-1-.92,4.06,4.06,0,0,1-.58-1.28,5.76,5.76,0,0,1-.19-1.47,6.72,6.72,0,0,1,.07-1,4.13,4.13,0,0,1,.23-.9q-.73,1-1.65,2a16.3,16.3,0,0,1-2,1.9,11.28,11.28,0,0,1-2.23,1.41,5.45,5.45,0,0,1-2.36.55A5,5,0,0,1,105,34.2a4.78,4.78,0,0,1-1.54-.81,4.66,4.66,0,0,1-1.22-1.45,4.46,4.46,0,0,1-.49-2.18,10.93,10.93,0,0,1,.29-2.3,16.45,16.45,0,0,1,.89-2.78,17.11,17.11,0,0,1,1.52-2.85,12.51,12.51,0,0,1,2.19-2.52,10.72,10.72,0,0,1,2.89-1.81,9.1,9.1,0,0,1,3.61-.69,5.73,5.73,0,0,1,1.81.26,7.59,7.59,0,0,1,1.31.56,6.56,6.56,0,0,1,1.08.82q.4-.21.82-.4a7,7,0,0,1,.74-.29,2.18,2.18,0,0,1,.67-.13,2.13,2.13,0,0,1,1.45.49,1.43,1.43,0,0,1,.56,1.08,1.11,1.11,0,0,1,0,.26c-.08.3-.2.67-.36,1.13l-.55,1.51q-.31.83-.62,1.74t-.57,1.77q-.26.87-.42,1.63a6.35,6.35,0,0,0-.16,1.3,2.54,2.54,0,0,0,.23,1.16.82.82,0,0,0,.8.46,2,2,0,0,0,.83-.22,7.85,7.85,0,0,0,1-.6q.56-.37,1.16-.86t1.16-1q1.31-1.17,2.79-2.67a1.17,1.17,0,0,1,.73-.31.93.93,0,0,1,.79.46,1.75,1.75,0,0,1,.32,1A1.5,1.5,0,0,1,128.29,27.1ZM112,21a4.41,4.41,0,0,0-2.14.56,6.63,6.63,0,0,0-1.83,1.48,7.39,7.39,0,0,0-1.27,2.05,6,6,0,0,0-.47,2.29,8.23,8.23,0,0,0,.06,1,2.74,2.74,0,0,0,.27.93,1.92,1.92,0,0,0,.6.7,1.74,1.74,0,0,0,1,.28,2.29,2.29,0,0,0,1.21-.46,10,10,0,0,0,1.43-1.17,18.82,18.82,0,0,0,1.44-1.57q.7-.86,1.27-1.68a16,16,0,0,0,.92-1.48,2.4,2.4,0,0,0,.35-1,1.23,1.23,0,0,0-.31-.81,2.8,2.8,0,0,0-.75-.62,3.75,3.75,0,0,0-1-.39A3.63,3.63,0,0,0,112,21Z"/><path class="cls-1" d="M123.6,30.15q.56-1.2,1.29-2.66t1.47-2.91l1.4-2.75q.66-1.3,1.1-2.22L136.6,4.39A2,2,0,0,1,137,3.8a3.7,3.7,0,0,1,1.47-.86,2.88,2.88,0,0,1,.84-.13,2.05,2.05,0,0,1,1.43.39,1.27,1.27,0,0,1,.4,1,2.67,2.67,0,0,1-.26,1.09,7.44,7.44,0,0,1-.59,1.07q-1,1.76-2,3.55l-1.9,3.61q-1,1.82-1.91,3.61t-2,3.55q.66-.63,1.4-1.31a12.06,12.06,0,0,1,1.61-1.24,8.91,8.91,0,0,1,1.9-.93,6.89,6.89,0,0,1,2.3-.36,7.06,7.06,0,0,1,1.43.14,3.69,3.69,0,0,1,1.2.46,2.31,2.31,0,0,1,.82.87,2.75,2.75,0,0,1,.31,1.35,5.69,5.69,0,0,1-.32,1.94,8.58,8.58,0,0,1-.81,1.67,14.5,14.5,0,0,1-1.08,1.5q-.59.72-1.11,1.46a10.62,10.62,0,0,0-.92,1.54,5.11,5.11,0,0,0-.48,1.74.39.39,0,0,1,0,.09.39.39,0,0,0,0,.09c0,.31.11.51.32.59a2.35,2.35,0,0,0,.81.12,4.26,4.26,0,0,0,1.36-.25,9,9,0,0,0,1.47-.66,17,17,0,0,0,1.48-.93q.74-.52,1.41-1.06t1.23-1l1-.88a1.51,1.51,0,0,1,.45-.28,1.2,1.2,0,0,1,.45-.09.94.94,0,0,1,.72.32,1.21,1.21,0,0,1,.29.86,2.44,2.44,0,0,1-.34,1.13,4.19,4.19,0,0,1-1.16,1.27q-1.29,1.13-2.63,2.16a25.6,25.6,0,0,1-2.7,1.83A15.3,15.3,0,0,1,140.13,34a8,8,0,0,1-2.64.47,4.33,4.33,0,0,1-2.67-.76,2.82,2.82,0,0,1-1-2.41,6.24,6.24,0,0,1,.41-2.26,13.19,13.19,0,0,1,1-2.06q.6-1,1.28-1.92a20.05,20.05,0,0,0,1.2-1.82,4.5,4.5,0,0,0,.43-.74,1.79,1.79,0,0,0,.15-.74.86.86,0,0,0-.19-.57.73.73,0,0,0-.59-.22,5,5,0,0,0-2.56.68,9.41,9.41,0,0,0-2.16,1.74A18.64,18.64,0,0,0,131,25.66q-.84,1.26-1.57,2.41-.33.52-.67,1.18l-.7,1.37q-.36.7-.76,1.4a9.66,9.66,0,0,1-.83,1.23,4.31,4.31,0,0,1-.92.87,1.75,1.75,0,0,1-1,.33,1.64,1.64,0,0,1-1.27-.48,1.71,1.71,0,0,1-.45-1.21,3.81,3.81,0,0,1,.19-1.14A11.07,11.07,0,0,1,123.6,30.15Z"/><path class="cls-1" d="M166.27,6.79a5.77,5.77,0,0,1,4.13,1.72l2.18,2.19a5,5,0,0,0,7.07,0l2.19-2.18A5.81,5.81,0,0,1,190,16.8l-2.9,2.88L176.75,30a1,1,0,0,1-1.41,0L165,19.6l-2.88-2.9a5.81,5.81,0,0,1,4.13-9.91m0-4a9.78,9.78,0,0,0-6.92,2.85h0a9.81,9.81,0,0,0,0,13.88l2.88,2.9L172.5,32.8a5,5,0,0,0,7.07,0L190,22.52l2.9-2.88a9.81,9.81,0,0,0,0-13.88h0a9.81,9.81,0,0,0-13.88,0l-2.19,2.18a1,1,0,0,1-1.41,0l-2.18-2.19a9.78,9.78,0,0,0-7-2.9Z"/></g></g></svg>